<?xml version="1.0" standalone="no"?><!DOCTYPE svg PUBLIC "-//W3C//DTD SVG 1.1//EN" "http://www.w3.org/Graphics/SVG/1.1/DTD/svg11.dtd"><svg t="1729603439895" class="icon" viewBox="0 0 1024 1024" version="1.1" xmlns="http://www.w3.org/2000/svg" p-id="16297" id="mx_n_1729603439898" xmlns:xlink="http://www.w3.org/1999/xlink" width="200" height="200"><path d="M891.23498667 161.10478222H133.34755555c-20.97152 0-37.86524445 16.89372445-37.86524444 37.86524444v528.94833778c0 20.97152 16.89372445 37.86524445 37.86524444 37.86524444h292.43619556v125.82912H284.22599111c-16.31118222 0-29.70965333 13.39847111-29.70965333 29.70965334s13.39847111 29.70965333 29.70965333 29.70965333h456.13056c16.31118222 0 29.70965333-13.39847111 29.70965334-29.70965333s-13.39847111-29.70965333-29.70965334-29.70965334H599.38133333v-125.82912h292.43619556c20.97152 0 37.86524445-16.89372445 37.86524444-37.86524444V198.97002666c-0.58254222-20.97152-17.47626667-37.86524445-38.44778666-37.86524444z m-538.26901334 386.80803556c11.65084445 11.65084445 11.65084445 30.29219555 0 41.94304-5.82542222 5.82542222-13.39847111 8.73813333-20.97152 8.73813333s-15.14609778-2.91271111-20.97152-8.73813333L205.00024889 483.83317333c-11.65084445-11.65084445-11.65084445-30.29219555 0-41.94304l106.60522666-106.60522667c11.65084445-11.65084445 30.29219555-11.65084445 41.94304 0s11.65084445 30.29219555 0 41.94304L267.91480889 462.86165333l85.05116444 85.05116445z m186.41351112 343.6999111h-54.17642667v-125.82912h54.17642667v125.82912zM613.94488889 345.77066666l-149.71335111 261.56145778c-5.24288 9.32067555-15.72864 15.14609778-25.63185778 15.14609778-5.24288 0-9.90321778-1.16508445-14.56355555-4.07779556-13.98101333-8.15559111-19.22389333-26.2144-11.06830223-40.77795555l149.71335111-261.56145778c8.15559111-13.98101333 26.2144-19.22389333 40.77795556-11.06830222 13.98101333 8.73813333 18.64135111 26.79694222 10.48576 40.77795555z m205.05486222 138.06250667l-106.02268444 106.02268445c-5.82542222 5.82542222-13.39847111 8.73813333-20.97152 8.73813333s-15.14609778-2.91271111-20.97152-8.73813333c-11.65084445-11.65084445-11.65084445-30.29219555 0-41.94304l85.05116444-85.05116445-85.05116444-85.05116445c-11.65084445-11.65084445-11.65084445-30.29219555 0-41.94304s30.29219555-11.65084445 41.94304 0l106.60522666 106.60522667c5.82542222 5.82542222 8.73813333 13.39847111 8.73813334 20.97152-0.58254222 6.99050667-3.49525333 14.56355555-9.32067556 20.38897778z"  p-id="16298"></path></svg>
