<?xml version="1.0" standalone="no"?><!DOCTYPE svg PUBLIC "-//W3C//DTD SVG 1.1//EN" "http://www.w3.org/Graphics/SVG/1.1/DTD/svg11.dtd"><svg t="1751786908342" class="icon" viewBox="0 0 1024 1024" version="1.1" xmlns="http://www.w3.org/2000/svg" p-id="1482" xmlns:xlink="http://www.w3.org/1999/xlink" width="200" height="200"><path d="M998.4 465.6H524.8v139.2H864C846.4 800 686.4 884.8 534.4 884.8c-195.2 0-368-152-368-372.8 0-212.8 164.8-372.8 368-372.8C691.2 139.2 784 240 784 240l96-100.8S752 0 529.6 0C236.8 0 12.8 246.4 12.8 512c0 257.6 212.8 512 524.8 512 275.2 0 473.6-185.6 473.6-465.6-3.2-59.2-12.8-92.8-12.8-92.8z" p-id="1483"></path></svg>