<?xml version="1.0" standalone="no"?><!DOCTYPE svg PUBLIC "-//W3C//DTD SVG 1.1//EN" "http://www.w3.org/Graphics/SVG/1.1/DTD/svg11.dtd"><svg t="1729170875264" class="icon" viewBox="0 0 1024 1024" version="1.1" xmlns="http://www.w3.org/2000/svg" p-id="1467" xmlns:xlink="http://www.w3.org/1999/xlink" width="200" height="200"><path d="M983.202 421.726c-3.773-22.528-24.091-45.54-45.272-50.553l-15.791-3.88a159.528 159.528 0 0 1-90.92-76.854 178.284 178.284 0 0 1-16.708-123.42l4.905-15.844c6.36-21.99-1.887-52.278-18.432-67.369 0 0-14.875-13.366-56.59-39.127-41.876-25.654-59.823-32.822-59.823-32.822-20.372-7.923-48.883-0.324-63.758 16.546l-10.994 12.61a150.474 150.474 0 0 1-107.79 45.704 151.067 151.067 0 0 1-108.274-46.08l-10.51-12.234c-14.713-16.87-43.385-24.36-63.81-16.546 0 0-18.217 7.168-60.04 32.876-41.876 25.923-56.59 39.343-56.59 39.343-16.49 14.875-24.737 44.894-18.323 67.099l4.473 16.06a178.5 178.5 0 0 1-16.707 123.204 158.558 158.558 0 0 1-91.514 77.07l-15.252 3.664c-20.857 5.174-41.391 27.918-45.271 50.553 0 0-3.45 20.373-3.45 72.004 0 51.63 3.45 71.95 3.45 71.95 3.772 22.797 24.09 45.594 45.271 50.606l14.875 3.665c38.804 12.126 71.68 39.882 91.621 77.285 20.857 38.804 25.87 82.998 16.761 123.42l-4.311 15.629c-6.36 21.989 1.886 52.278 18.432 67.368 0 0 14.875 13.366 56.59 39.128 41.875 25.761 59.876 32.822 59.876 32.822 20.319 7.922 48.883 0.323 63.758-16.546l10.401-11.965a150.097 150.097 0 0 1 216.765 0.108l10.402 12.019c14.66 16.815 43.331 24.306 63.757 16.491 0 0 18.217-7.168 60.093-32.822 41.822-25.761 56.482-39.181 56.482-39.181 16.545-14.821 24.791-45.11 18.432-67.368l-4.528-16.223a177.206 177.206 0 0 1 16.708-122.772 159.636 159.636 0 0 1 91.62-77.285l14.93-3.665c20.857-5.174 41.39-27.917 45.271-50.553 0 0 3.45-20.372 3.45-72.004-0.216-51.63-3.665-72.11-3.665-72.11zM501.976 700.632c-106.712 0-193.429-92.538-193.429-206.902a212.723 212.723 0 0 1 56.428-145.893A188.308 188.308 0 0 1 502.03 287.15c106.712 0 193.375 92.43 193.375 206.794-0.162 114.15-86.77 206.687-193.428 206.687z" p-id="1468"></path></svg>