<?xml version="1.0" standalone="no"?><!DOCTYPE svg PUBLIC "-//W3C//DTD SVG 1.1//EN" "http://www.w3.org/Graphics/SVG/1.1/DTD/svg11.dtd"><svg t="1729603293706" class="icon" viewBox="0 0 1024 1024" version="1.1" xmlns="http://www.w3.org/2000/svg" p-id="11689" xmlns:xlink="http://www.w3.org/1999/xlink" width="200" height="200"><path d="M697.2 243.2V141.7c0-23.9-29.9-47.8-53.8-47.8H350.7c-23.9 0-53.8 23.9-53.8 47.8v101.5H141.7C99.8 243.2 64 285 64 320.9v125.4h896V320.9c0-35.8-41.8-77.7-77.7-77.7H697.2z m-77.7 0H380.6v-47.8c0-17.9 11.9-23.9 23.9-23.9h185.2c17.9 0 23.9 11.9 23.9 23.9l5.9 47.8zM512 601.6c53.8 0 53.8-59.7 53.8-101.5H434.3c0 29.9 0 101.5 53.8 101.5H512z m107.5-101.5S661.3 649.4 500 649.4c-167.3 0-119.5-149.3-119.5-149.3H64v352.4c0 41.8 35.8 77.7 77.7 77.7h740.7c41.8 0 77.7-29.9 77.7-77.7V500.1H619.5z m0 0" p-id="11690"></path></svg>